<svg id="Layer_1" data-name="Layer 1" xmlns="http://www.w3.org/2000/svg" viewBox="0 0 504.92 504.9"><defs><style>.cls-1{fill:#befddf;}.cls-2{fill:#feb5c5;}.cls-3{fill:#eae852;}.cls-4{fill:#fe4871;}</style></defs><title>logo</title><path class="cls-1" d="M504.92,123.47c-1.13,2.85-.51,5.88-.9,8.81a118.45,118.45,0,0,1-25.54,59.94,116.84,116.84,0,0,1-42.25,33A113.35,113.35,0,0,1,402.16,235c-10.54,1.31-21.09.91-31.64.93-32.91.07-65.82,0-98.73.06-2.4,0-3.37-.5-3.36-3.16.09-39.07-.13-78.15.15-117.22.15-21.92,6.58-42.16,18.25-60.75a117.16,117.16,0,0,1,20.81-24.71A113.73,113.73,0,0,1,354.12,4.48c7.94-2.19,15.95-3.87,24.22-4A3.46,3.46,0,0,0,379.45,0h16.49c1.44,1,3.08.3,4.61.54a135.52,135.52,0,0,1,27.94,6.88,119,119,0,0,1,37.95,23.39A115.68,115.68,0,0,1,494.65,70,117.06,117.06,0,0,1,504,104.67c.31,2.76-.21,5.63.88,8.31Z"/><path class="cls-2" d="M122,0c2.94,1.05,6.05.56,9.08.89a115.87,115.87,0,0,1,44.08,14.05,113,113,0,0,1,27.05,20.67c16.2,16.89,27,36.69,31.31,59.86a135.55,135.55,0,0,1,2,25q-.06,56,0,112c0,3.48,0,3.48-3.44,3.48-39.08,0-78.15.2-117.22-.11-20.61-.16-39.75-6.15-57.45-16.76a117.54,117.54,0,0,1-25.89-21,119.11,119.11,0,0,1-16.89-23.39A115.85,115.85,0,0,1,1.2,135.07a120.21,120.21,0,0,1,7-60.41A115,115,0,0,1,28.38,41.32a118.19,118.19,0,0,1,29.19-24.7A114.13,114.13,0,0,1,100.49,1.41a73.77,73.77,0,0,1,11.39-1A1.85,1.85,0,0,0,113.5,0Z"/><path class="cls-2" d="M111,504.9a.69.69,0,0,0,0-.47l11.55,0a1.12,1.12,0,0,0,0,.45Z"/><path class="cls-3" d="M332.92,268.94c17.33,0,34.66.19,52,0,24-.32,46.16,5.82,66.09,19.11,27.11,18.07,44.6,42.89,50.94,75.16a116.55,116.55,0,0,1,2.54,28.5c-1.26,24.72-9.09,47-24.24,66.69-18,23.3-41.41,38.23-70.24,43.75-37.95,7.25-72-1.75-101.29-27.19-18.38-16-30.37-36-36.42-59.53a110.69,110.69,0,0,1-3.3-24.17c-.88-28.31-.3-56.62-.44-84.94-.05-11.49.06-23,0-34.48,0-1.87.39-2.94,2.61-2.93q30.87.08,61.72,0Z"/><path class="cls-4" d="M122.53,504.45l-11.55,0a115.41,115.41,0,0,1-69.42-27.8C20.69,459,7.34,436.65,2.33,409.71c-7.12-38.38,2-72.56,28-101.81,18.8-21.24,42.58-33.72,70.68-37.83A154.28,154.28,0,0,1,123.4,269H232.13c3.42,0,3.42,0,3.42,3.44q0,58,0,116c0,28.74-10,53.6-28.57,75.31-18.86,22.07-42.7,35.1-71.29,39.56A95.1,95.1,0,0,1,122.53,504.45Z"/></svg>